<svg xmlns="http://www.w3.org/2000/svg" viewBox="0 0 628.7 58.1"><path d="M151.1 40L0 38l151.1-2c1.1 0 2 .9 2 2s-.9 2-2 2zm326.6-4l151.1 2-151.1 2c-1.1 0-2-.9-2-2-.1-1.1.8-2 2-2-.1 0-.1 0 0 0z" fill="#fff"/><path d="M151.1 38h89c1.1 0 2.1-.4 2.8-1.2l11.5-11.5c1.6-1.6 4.1-1.6 5.7 0L289.8 55c1.6 1.6 4.1 1.6 5.7 0l14.8-14.8c1.6-1.6 1.6-4.1 0-5.7l-9.5-9.5c-1.6-1.6-4.1-1.6-5.7 0l-8.8 8.8c-1.6 1.6-1.6 4.1 0 5.7l2.6 2.6c1.6 1.6 4.1 1.6 5.7 0l2.8-2.8c1.6-1.6 1.6-4.1 0-5.7l-9.4-9.4-6.5-6.5c-1.6-1.6-4.1-1.6-5.7 0l-11.7 11.7-6.6 6.6c-1.6 1.6-1.6 4.1 0 5.7L259 43c1.6 1.5 4.1 1.5 5.6 0l27.8-27.8 12-12c1.6-1.6 4.1-1.6 5.7 0L320.9 14c1.6 1.6 1.6 4.1 0 5.7l-6.5 6.5-6.5-6.5c-1.6-1.6-1.6-4.1 0-5.7l10.8-10.8c1.6-1.6 4.1-1.6 5.7 0l12 12L364.1 43c1.6 1.6 4.1 1.6 5.6 0l1.4-1.4c1.6-1.6 1.6-4.1 0-5.7l-6.6-6.6L353 17.7c-1.6-1.6-4.1-1.6-5.7 0l-6.5 6.5-9.4 9.4c-1.6 1.6-1.6 4.1 0 5.7l2.8 2.8c1.6 1.6 4.1 1.6 5.7 0l2.6-2.6c1.6-1.6 1.6-4.1 0-5.7l-8.8-8.8c-1.6-1.6-4.1-1.6-5.7 0l-9.5 9.5c-1.6 1.6-1.6 4.1 0 5.7L333.3 55c1.6 1.6 4.1 1.6 5.7 0l29.7-29.7c1.6-1.6 4.1-1.6 5.7 0l11.5 11.5c.8.8 1.8 1.2 2.8 1.2h89" fill="none" stroke="#fff" stroke-width="4" stroke-linecap="round" stroke-miterlimit="10"/></svg>