<?xml version="1.0" encoding="utf-8"?>
<!-- Generator: Adobe Illustrator 23.0.1, SVG Export Plug-In . SVG Version: 6.00 Build 0)  -->
<svg version="1.1" id="Layer_1" xmlns="http://www.w3.org/2000/svg" xmlns:xlink="http://www.w3.org/1999/xlink" x="0px" y="0px"
	 viewBox="0 0 582.4 107.5" style="enable-background:new 0 0 582.4 107.5;" xml:space="preserve">
<style type="text/css">
	.st0{fill:none;stroke:#FFFFFF;stroke-width:4;stroke-miterlimit:10;}
	.st1{fill:#FFFFFF;}
</style>
<g id="decoration_3_1_">
	<rect x="286.6" y="23.2" transform="matrix(0.7071 -0.7071 0.7071 0.7071 65.4829 214.4744)" class="st0" width="10" height="10"/>
	
		<rect x="280.8" y="67.4" transform="matrix(0.7071 -0.7071 0.7071 0.7071 30.1158 229.0775)" class="st0" width="21.5" height="21.5"/>
	<g>
		<path class="st1" d="M581.4,56.9c-5,0.2-10.1,0.3-15.1,0.5c-5,0.1-10.1,0.2-15.1,0.3l-15.1,0.2L521,58h-0.8l-0.6-0.6l-5.9-5.9h2.8
			L499.9,68l-1.4,1.4l-1.4-1.4l-10.5-10.5h2.9l-4.9,5v-2.9l4.8,4.8h-2.9l9.6-9.6v2.9l-9.9-9.9h2.9l-9.6,9.6l-0.6,0.6h-0.8H370.7
			l1.5-0.6l-15.5,15.5l-1.5,1.5l-1.5-1.5l-45.2-45.1L285.7,5.2l-0.6-0.5L285,4.6l0,0h-0.1c-0.1,0-0.1,0-0.2-0.1s-0.4-0.1-0.5-0.2
			c-0.2,0-0.4,0-0.6-0.1c-0.8,0-1.5,0.3-2.1,0.9l-5.6,5.6L264.6,22v-3l51.2,51.2h-3.1l14.5-14.5v3.1L313,44.5h3.1l-8.5,8.5v-3.1
			l27.6,27.6H332l29-29v3.2l-21.1-21.1h3.2l-7,7v-3.2L350,48.5l1.6,1.6l-1.6,1.6L321.8,80l-14.1,14l-7.1,7.1l-3.5,3.5l-0.4,0.4
			l-0.2,0.2l-0.1,0.1l-0.2,0.2l-0.1,0.1c-0.4,0.3-0.5,0.5-1.2,0.9c-0.3,0.2-0.6,0.4-0.9,0.5l-0.9,0.3c-0.6,0.2-1.2,0.2-1.8,0.2
			c-1.2-0.1-2.4-0.3-3.5-0.9c-0.6-0.3-1-0.7-1.5-1.1c-0.3-0.2-0.3-0.3-0.5-0.5l-0.4-0.4l-3.5-3.5l-7.1-7.1l-14.1-14.1l-28.2-28.3
			l-1.6-1.6l1.6-1.6l13.9-14.1v3.2l-7-7h3.2l-21.1,21.1v-3.2l29,29h-3.1L275,49.8V53l-8.5-8.5h3.1l-14.3,14.3v-3.1l14.5,14.5h-3.1
			l51-51.2v3l-11.3-11.3l-5.6-5.6c-1.1-1.2-3-1.2-4.2,0L274,27.7l-45.2,45.1l-1.5,1.5l-1.5-1.5l-15.5-15.5l1.5,0.6H104.4h-0.8
			l-0.6-0.6l-9.6-9.6h2.9l-9.9,9.9v-2.9l9.6,9.6h-2.9l4.8-4.8v2.9l-4.9-5h2.9L85.3,68l-1.4,1.4L82.4,68L65.9,51.4h2.8l-5.9,5.9
			l-0.6,0.6h-0.8l-15.1-0.1l-15.1-0.2c-5-0.1-10.1-0.2-15.1-0.3C11,57.2,6,57.1,1,56.9c-0.6,0-1-0.5-1-1s0.4-0.9,1-1
			c5-0.2,10.1-0.3,15.1-0.5c5-0.1,10.1-0.2,15.1-0.3L46.3,54l15.1-0.1L60,54.5l5.9-5.9l1.4-1.4l1.4,1.4l16.6,16.6h-2.8L93,54.6
			l1.4-1.4l1.4,1.4l5,4.9l1.4,1.4l-1.4,1.4L96,67.2l-1.4,1.4l-1.4-1.4l-9.6-9.6l-1.4-1.4l1.4-1.4l9.9-9.9l1.4-1.4l1.4,1.4l9.6,9.6
			l-1.4-0.6h107.4h0.9l0.6,0.6L228.9,70h-3L271,24.8l22.6-22.6c1.3-1.3,3.2-2.2,5.1-2.2c0.5,0,0.9,0.1,1.4,0.1
			c0.5,0.1,0.9,0.2,1.4,0.4s1,0.5,1.4,0.8l0.4,0.3l0.2,0.2l0.1,0.1l0,0l0.2,0.2l5.6,5.6L320.8,19l1.5,1.5l-1.5,1.5l-51.2,51.2
			l-1.5,1.5l-1.5-1.5L252,58.8l-1.5-1.5l1.5-1.5l14.3-14.3l1.5-1.6l1.6,1.6l8.5,8.5l1.6,1.6l-1.6,1.6l-27.6,27.6l-1.6,1.6l-1.6-1.6
			l-29-29l-1.6-1.6l1.6-1.6l21.1-21.1l1.6-1.6l1.6,1.6l7,7l1.6,1.6l-1.6,1.6l-13.9,14.1v-3.2l28.3,28.2l14.1,14.1L285,98l3.5,3.5
			l0.4,0.4c0.1,0.1,0.3,0.3,0.4,0.4c0.2,0.1,0.3,0.3,0.6,0.4c0.4,0.3,0.8,0.3,1.3,0.4c0.2-0.1,0.5,0,0.7-0.1c0.1,0,0.2-0.1,0.3-0.1
			c0.1,0,0.1-0.1,0.2-0.1c0,0.1,0.5-0.3,0.8-0.6l0.1-0.1c0.2-0.1-0.2,0.2-0.1,0.1l0,0l0.1-0.1l0.2-0.2l0.4-0.4l3.5-3.5l7.1-7.1
			l14.1-14.1l28.3-28.2v3.2L333,37.7l-1.6-1.6l1.6-1.6l7-7l1.6-1.6l1.6,1.6l21.1,21.1l1.6,1.6l-1.6,1.6l-29,29l-1.6,1.6l-1.6-1.6
			L304.5,53l-1.6-1.6l1.6-1.6l8.5-8.5l1.6-1.6l1.5,1.6l14.3,14.3l1.5,1.5l-1.5,1.5l-14.5,14.5l-1.5,1.5l-1.5-1.5l-51.2-51.2
			l-1.5-1.5l1.5-1.5L273,7.6l5.6-5.6c1.3-1.3,3.2-2.2,5.1-2.1c0.5,0,0.9,0.1,1.4,0.2s0.9,0.2,1.4,0.4c0.2,0.1,0.5,0.3,0.7,0.4
			l0.4,0.2l0.2,0.1l0.1,0.1l0.4,0.3l0.2,0.2l0.1,0.1l0.2,0.2l0,0l22.6,22.6l45.1,45.2h-3L369,54.4l0.6-0.6h0.9h107.4l-1.4,0.6
			l9.6-9.6l1.4-1.4l1.4,1.4l9.9,9.9l1.4,1.4l-1.4,1.4l-9.6,9.6l-1.4,1.4l-1.4-1.4l-4.8-4.8l-1.4-1.4l1.4-1.4l5-4.9l1.4-1.4l1.4,1.4
			l10.5,10.5h-2.8l16.6-16.6l1.4-1.4l1.4,1.4l5.9,5.9l-1.4-0.6l15.1,0.1l15.1,0.2c5,0.1,10.1,0.2,15.1,0.3c5,0.2,10.1,0.3,15.1,0.5
			c0.6,0,1,0.5,1,1C582.3,56.5,581.9,56.9,581.4,56.9z"/>
	</g>
</g>
</svg>
