<?xml version="1.0" encoding="utf-8"?>
<!-- Generator: Adobe Illustrator 23.0.1, SVG Export Plug-In . SVG Version: 6.00 Build 0)  -->
<svg version="1.1" id="Isolation_Mode" xmlns="http://www.w3.org/2000/svg" xmlns:xlink="http://www.w3.org/1999/xlink" x="0px"
	 y="0px" viewBox="0 0 118.5 71.2" style="enable-background:new 0 0 118.5 71.2;" xml:space="preserve">
<style type="text/css">
	.st0{fill:none;}
	.st1{fill:#FFFFFF;}
	.st2{fill:none;stroke:#FFFFFF;stroke-width:0.6362;stroke-linecap:round;stroke-linejoin:round;stroke-miterlimit:10;}
	.st3{fill:#FFFFFF;stroke:#FFFFFF;stroke-width:0.2137;stroke-miterlimit:10;}
</style>
<path class="st0" d="M59.2,0C26.5,0,0,15.9,0,35.6s26.5,35.6,59.2,35.6s59.2-15.9,59.2-35.6S91.9,0,59.2,0"/>
<path class="st0" d="M118.5,35.6C118.5,15.9,91.9,0,59.2,0"/>
<path class="st0" d="M59.2,0C26.5,0,0,15.9,0,35.6s26.5,35.6,59.2,35.6"/>
<g>
	<path class="st1" d="M36.3,54.1l-0.1,0.6l-0.7-0.2L35,59.7l0,0l1.8-3.3l0.3,3.8l0,0l1.7-4.8L38,55.2l0.1-0.6l1.7,0.4l-0.1,0.6
		l-0.4-0.1l-2.1,6.2l-0.6-0.1l-0.3-3.2l-1.5,2.8L34.3,61l0.6-6.5l-0.4-0.1l0.1-0.6L36.3,54.1z"/>
	<path class="st1" d="M40,58.4c0.3-1.8,1.3-3.5,2.8-3.3c1.6,0.2,2,2.2,1.8,4c-0.3,1.8-1.3,3.5-2.8,3.3C40.2,62.2,39.7,60.2,40,58.4z
		 M44,59c0.2-1.3,0-3-1.2-3.2c-1.2-0.2-1.9,1.4-2.1,2.7c-0.2,1.3,0,3,1.2,3.2C43.1,61.9,43.8,60.4,44,59z"/>
	<path class="st1" d="M50.5,63.3l-1.1-0.1L48,59.8l-0.9-0.1l-0.2,2.5l0.9,0.1L47.7,63l-2.3-0.2l0.1-0.7l0.8,0.1l0.5-5.6L46,56.4
		l0.1-0.6c0.3,0.1,0.5,0.2,0.9,0.2c0.5,0,1,0,1.5,0c1,0.1,1.8,0.7,1.7,2c-0.1,1-0.6,1.6-1.4,1.8l1.2,2.8l0.7,0.1L50.5,63.3z
		 M47.1,59.1l0.5,0.1c1.2,0.1,1.8-0.4,1.8-1.1c0.1-0.9-0.4-1.3-1.1-1.3c-0.3,0-0.7,0-1,0L47.1,59.1z"/>
	<path class="st1" d="M52.5,57.1l-0.8-0.2l0-0.5c0.3,0.1,0.6,0.2,0.9,0.2c0.4,0,0.8-0.1,1.2-0.1c1.4,0.1,2.5,1.2,2.4,3.7
		c-0.1,2.6-1.2,3.4-2.5,3.3c-0.4,0-0.9-0.1-1.3-0.1l-1,0.1l-0.1-0.7l0.8-0.1L52.5,57.1z M52.8,62.7l1,0c1,0,1.8-0.6,1.9-2.6
		c0.1-2.3-1-3.2-1.9-3.1l-0.7,0.1L52.8,62.7z"/>
	<path class="st1" d="M59.2,62.9l1.5,0l0,0.7l-2.9,0l0-0.7l0.8,0l0-5.7l-0.8-0.1l0-0.6c0.3,0,0.7,0.1,1,0.1c0.6,0,1.1-0.1,1.7-0.2
		c0.9,0,1.7,0.5,1.7,1.8c0,1.3-0.7,2.2-2.1,2.2l-0.8,0L59.2,62.9z M59.2,59.9l0.8,0c1,0,1.5-0.6,1.5-1.5c0-0.9-0.5-1.3-1.2-1.3
		c-0.4,0-0.8,0.1-1.1,0.1L59.2,59.9z"/>
	<path class="st1" d="M68.7,63.3l-1.1,0.1l-1.9-3.1l-0.9,0l0.1,2.5l0.9,0l0,0.7l-2.3,0.1l0-0.7l0.8,0L64,57.3l-0.8-0.1l0-0.6
		c0.3,0.1,0.6,0.1,0.9,0.1c0.5,0,1-0.2,1.5-0.2c1,0,1.9,0.4,1.9,1.7c0,1-0.4,1.6-1.2,1.9l1.6,2.6l0.7,0L68.7,63.3z M64.7,59.7l0.5,0
		c1.2,0,1.7-0.6,1.6-1.4c0-0.9-0.6-1.2-1.3-1.2c-0.3,0-0.6,0.1-1,0.1L64.7,59.7z"/>
	<path class="st1" d="M69.5,63.3l-0.1-0.7l1-0.1l-0.5-5.7l-1,0.1l-0.1-0.7l4.6-0.4l0.2,2L73,57.9l0-0.3c-0.1-1-0.1-1.1-0.9-1
		l-1.6,0.2l0.2,2.2l1.3-0.1l-0.1-1l0.6-0.1l0.3,2.7l-0.6,0.1l-0.1-1.1l-1.3,0.1l0.3,2.8l1.8-0.2c0.7-0.1,0.8-0.2,0.7-1.5l0-0.2
		l0.6-0.1l0.2,2.3L69.5,63.3z"/>
	<path class="st1" d="M78.1,62.4c-0.5,0.1-0.9,0-1.4-0.2l0,0.4l-0.6,0l-0.1-1.2c0-0.4-0.1-0.7-0.3-1l0.6-0.2l0.1,0.5
		c0.2,0.8,0.7,1.2,1.5,1c0.6-0.1,1.2-0.5,1.1-1.4c-0.3-2.1-3.2-0.5-3.6-3c-0.2-1.2,0.7-2,1.6-2.2c0.3-0.1,0.8,0,1.1,0.1l0-0.5l0.6,0
		l0.1,1.2c0,0.4,0.1,0.7,0.2,1l-0.6,0.2c-0.1-0.3-0.1-0.8-0.3-1.1c-0.2-0.4-0.7-0.4-1.1-0.4c-0.5,0.1-1.2,0.5-1.1,1.4
		c0.3,1.9,3.2,0.4,3.6,3C79.9,61.3,79.2,62.2,78.1,62.4z"/>
	<path class="st1" d="M84.2,61.3c-0.5,0.1-0.9,0.1-1.4-0.1l0.1,0.4l-0.6,0L82,60.4c0-0.3-0.2-0.7-0.3-1l0.5-0.2l0.2,0.5
		c0.3,0.8,0.7,1.1,1.6,0.9c0.6-0.1,1.2-0.6,1-1.5c-0.4-2-3.3-0.3-3.8-2.8c-0.3-1.2,0.6-2.1,1.5-2.3c0.3-0.1,0.8-0.1,1.1,0.1l0-0.5
		l0.6,0l0.2,1.2c0,0.3,0.2,0.7,0.3,1l-0.6,0.2c-0.1-0.3-0.2-0.8-0.4-1c-0.3-0.4-0.7-0.4-1.1-0.3c-0.5,0.1-1.2,0.6-1,1.4
		c0.4,1.8,3.2,0.2,3.8,2.7C85.9,60.1,85.2,61.1,84.2,61.3z"/>
</g>
<g>
	<path class="st2" d="M88.2,57c2.7-0.7,5.2-1.6,7.5-2.5c2.3-0.9,4.4-1.9,6.2-3"/>
	<path class="st2" d="M18,51c1.8,1.1,3.9,2.1,6.2,3.1c2.3,0.9,4.8,1.8,7.5,2.6"/>
</g>
<g>
	<path class="st3" d="M40.9,17.1l1.3,9.3l-0.4,0.1l-0.6-4.4c-0.1-0.4-0.1-0.8-0.1-1.1c-0.3,1.3-1.2,2-2.4,2.1
		c-1.5,0.2-2.9-0.7-3.1-2.4c-0.3-1.9,0.9-3.2,2.5-3.4c1.2-0.2,2.2,0.4,2.7,1.4c-0.1-0.2-0.2-0.6-0.2-1l-0.1-0.5L40.9,17.1z
		 M40.9,19.7c-0.2-1.3-1.4-2.2-2.7-2c-1.4,0.2-2.3,1.4-2.1,2.9c0.2,1.5,1.4,2.4,2.8,2.2c1.3-0.2,2.2-1.4,2.1-2.7L40.9,19.7z"/>
	<path class="st3" d="M48.5,21c-0.5,0.8-1,1.2-1.7,1.2c-1,0.1-1.7-0.7-1.7-1.6l-0.3-3.8l0.4,0l0.3,3.7c0.1,0.9,0.6,1.5,1.5,1.4
		c1.2-0.1,2.1-1.9,2.9-5.7l0.4,0.1c-0.1,0.5-0.1,1.3,0,2.2l0.3,3.4l-0.4,0l-0.2-2.7c-0.1-0.8-0.1-1.3,0-1.8
		C49.5,19,48.9,20.3,48.5,21z"/>
	<path class="st3" d="M59,16l0.1,5.5l-0.4,0l0-0.5c0-0.4,0-0.9,0-1.1c-0.5,1.3-1.5,1.8-2.6,1.8c-1.5,0-2.8-1-2.8-2.8
		c0-2,1.3-3,2.9-3.1c1.2,0,2.1,0.7,2.5,1.7c-0.1-0.2-0.1-0.6-0.1-1.1l0-0.5L59,16z M58.7,18.5c0-1.3-1.1-2.3-2.5-2.3
		c-1.4,0-2.5,1.1-2.4,2.7c0,1.5,1.1,2.6,2.5,2.5c1.3,0,2.4-1.2,2.4-2.4L58.7,18.5z"/>
	<path class="st3" d="M62.9,21.6l0.4-18.2l0.4,0l-0.4,18.2L62.9,21.6z"/>
	<path class="st3" d="M67,21.7l0.3-5.5l0.4,0l-0.3,5.5L67,21.7z M67.6,14.7c-0.2,0-0.3-0.2-0.3-0.3s0.2-0.3,0.3-0.3
		c0.2,0,0.3,0.2,0.3,0.3C67.9,14.6,67.7,14.7,67.6,14.7z"/>
	<path class="st3" d="M72.1,22l0.4-5.1l-1.8-0.2l0-0.3l1.8,0.2l0.2-2.9l0.4,0l-0.2,2.9l1.8,0.2l0,0.3L72.9,17l-0.4,5.1L72.1,22z"/>
	<path class="st3" d="M76.9,16.9l0.4,0.1l1.5,5.3l2.7-4.7l0.4,0.1l-3.1,5.1c-0.7,1.1-1.8,2.6-2.8,3.7l-0.3-0.3
		c1-1.1,2.3-2.7,2.8-3.6L76.9,16.9z"/>
</g>
<g>
	<path class="st3" d="M47.8,6.7c0.3,0,0.6,0,0.7,0.1l0,0.1c-0.2-0.1-0.5-0.1-0.7-0.1c-0.9,0.1-1.6,0.8-1.5,2.4l0.2,2.8l0.7-0.1
		l0,0.1l-0.7,0.1l0.1,1.6c0.1,1.2-0.2,1.8-0.7,2.2l-0.1-0.1c0.6-0.5,0.8-1,0.7-2l-0.1-1.7l-0.8,0.1l0-0.1l0.8-0.1l-0.2-2.8
		C46,7.7,46.7,6.7,47.8,6.7z"/>
	<path class="st3" d="M48.5,11.2c-0.1,0-0.1,0-0.1-0.1c0-0.1,0-0.1,0.1-0.1c0.1,0,0.1,0,0.1,0.1C48.6,11.2,48.6,11.2,48.5,11.2z
		 M48.6,14.1l-0.1-2.2l0.2,0l0.1,2.2L48.6,14.1z"/>
	<path class="st3" d="M51,12.1c0.2-0.3,0.4-0.5,0.7-0.5c0.4,0,0.7,0.3,0.7,0.7l0.1,1.6l-0.2,0l-0.1-1.5c0-0.4-0.2-0.6-0.6-0.6
		c-0.5,0-0.9,0.7-1.3,2.3l-0.1,0c0-0.2,0.1-0.5,0-0.9l-0.1-1.4l0.2,0l0.1,1.1c0,0.3,0,0.5,0,0.7C50.5,12.9,50.8,12.4,51,12.1z"/>
	<path class="st3" d="M53.6,12.8c0-0.8,0.5-1.2,1.1-1.2c0.7,0,1,0.5,1,1l0,0.1l-2,0c0,0.7,0.5,1.1,1,1.1c0.3,0,0.6-0.2,0.8-0.4
		l0.1,0.1c-0.2,0.3-0.5,0.5-0.9,0.5C54.2,13.9,53.7,13.5,53.6,12.8z M53.8,12.6l1.8,0c0-0.5-0.3-0.9-0.9-0.9
		C54.2,11.7,53.9,12,53.8,12.6z"/>
	<path class="st3" d="M57.6,12.8c-0.4-0.1-0.6-0.3-0.6-0.7c0-0.4,0.3-0.7,0.7-0.7c0.2,0,0.4,0.1,0.6,0.3l-0.1,0.1
		c-0.1-0.2-0.3-0.2-0.5-0.2c-0.3,0-0.6,0.2-0.6,0.5c0,0.3,0.2,0.5,0.6,0.6c0.4,0.1,0.6,0.3,0.6,0.6c0,0.3-0.3,0.6-0.7,0.6
		c-0.2,0-0.4-0.1-0.7-0.2l0.1-0.1c0.2,0.2,0.4,0.2,0.6,0.2c0.3,0,0.6-0.2,0.6-0.4C58.1,13.1,57.9,12.9,57.6,12.8z"/>
	<path class="st3" d="M60,13.8l0-2.1l-0.8,0l0-0.1l0.8,0l0-1.2l0.2,0l0,1.2l0.8,0l0,0.1l-0.8,0l0,2.1L60,13.8z"/>
</g>
<g>
	<path class="st1" d="M9.9,29.4h5.6l-3,14.1h5.2l-0.4,2.2H6.4L9.9,29.4z"/>
	<path class="st1" d="M34,45.6h-6l-0.4-4.1h-4.7l-1.8,4.1h-2.5l7.6-16.3h6.1L34,45.6z M23.8,39.7h3.7l-0.6-7L23.8,39.7z"/>
	<path class="st1" d="M55.1,45.6h-5.7l2.4-11.1l-6.1,11.1h-3.5L41,34.2l-2.5,11.5h-2.3l3.5-16.3h6.5l0.8,9.2l4.9-9.2h6.6L55.1,45.6z
		"/>
	<path class="st1" d="M74.6,33.1c0,0.5-0.1,0.9-0.2,1.3c-0.1,0.4-0.3,0.7-0.6,1c-0.3,0.3-0.6,0.6-0.9,0.8c-0.3,0.2-0.7,0.5-1.1,0.7
		c0.2,0.1,0.4,0.2,0.7,0.3c0.3,0.1,0.5,0.3,0.7,0.6c0.2,0.3,0.4,0.6,0.6,1s0.2,0.9,0.2,1.5c0,0.8-0.2,1.5-0.5,2.1
		c-0.3,0.6-0.8,1.2-1.4,1.7c-0.6,0.5-1.4,0.8-2.4,1.1c-0.9,0.3-2,0.4-3.2,0.4h-7.6l3.5-16.3h6.7c0.7,0,1.3,0,2,0.1
		c0.7,0.1,1.2,0.3,1.8,0.6c0.5,0.3,0.9,0.7,1.3,1.1C74.5,31.7,74.6,32.3,74.6,33.1z M65.8,44c0.5,0,0.9-0.1,1.3-0.4
		c0.3-0.3,0.6-0.6,0.8-1.1c0.2-0.4,0.4-0.9,0.5-1.3c0.1-0.5,0.1-0.9,0.1-1.2c0-0.6-0.1-1.1-0.4-1.4C68,38.1,67.6,38,67,38h-0.9
		l-1.3,6H65.8z M67.7,36.2c0.4,0,0.7-0.1,1-0.3c0.3-0.2,0.5-0.5,0.7-0.8c0.2-0.3,0.3-0.7,0.4-1.1c0.1-0.4,0.1-0.7,0.1-1
		c0-0.5-0.1-0.9-0.3-1.3c-0.2-0.3-0.6-0.5-1.1-0.5h-0.8l-1.1,5.1H67.7z"/>
	<path class="st1" d="M75.9,45.6l3.5-16.3h6.9c1.1,0,2,0.1,2.8,0.3c0.8,0.2,1.5,0.6,2,1.1c0.5,0.5,0.9,1.1,1.2,1.9
		c0.3,0.8,0.4,1.8,0.4,2.9c0,1.2-0.2,2.5-0.5,3.7c-0.3,1.2-0.8,2.3-1.6,3.2c-0.7,0.9-1.7,1.7-2.9,2.3c-1.2,0.6-2.7,0.9-4.4,0.9H75.9
		z M82.9,43.8c0.6,0,1.1-0.2,1.5-0.7c0.4-0.5,0.8-1.1,1.1-1.8c0.3-0.7,0.6-1.5,0.8-2.4c0.2-0.9,0.4-1.7,0.5-2.6
		c0.1-0.8,0.2-1.6,0.3-2.2c0.1-0.6,0.1-1.1,0.1-1.4c0-0.5-0.1-0.9-0.3-1.2c-0.2-0.3-0.6-0.4-1.1-0.4h-1.2l-2.7,12.7H82.9z"/>
	<path class="st1" d="M107.9,45.6h-6l-0.4-4.1h-4.7l-1.8,4.1h-2.5l7.6-16.3h6.1L107.9,45.6z M97.6,39.7h3.7l-0.6-7L97.6,39.7z"/>
</g>
</svg>
