<svg version="1.1" id="Layer_1" xmlns="http://www.w3.org/2000/svg" x="0" y="0" viewBox="0 0 582.4 107.5" xml:space="preserve"><style>.st0{fill:none;stroke:#fff;stroke-width:4;stroke-miterlimit:10}</style><g id="decoration_3_1_"><path transform="rotate(-45.001 291.636 28.196)" class="st0" d="M286.6 23.2h10v10h-10z"/><path transform="rotate(-45.001 291.58 78.19)" class="st0" d="M280.8 67.4h21.5v21.5h-21.5z"/><path d="M581.4 56.9c-5 .2-10.1.3-15.1.5l-15.1.3-15.1.2-15.1.1h-.8l-.6-.6-5.9-5.9h2.8L499.9 68l-1.4 1.4-1.4-1.4-10.5-10.5h2.9l-4.9 5v-2.9l4.8 4.8h-2.9l9.6-9.6v2.9l-9.9-9.9h2.9l-9.6 9.6-.6.6H370.7l1.5-.6-15.5 15.5-1.5 1.5-1.5-1.5-45.2-45.1-22.8-22.6-.6-.5-.1-.1h-.1c-.1 0-.1 0-.2-.1s-.4-.1-.5-.2c-.2 0-.4 0-.6-.1-.8 0-1.5.3-2.1.9l-5.6 5.6L264.6 22v-3l51.2 51.2h-3.1l14.5-14.5v3.1L313 44.5h3.1l-8.5 8.5v-3.1l27.6 27.6H332l29-29v3.2l-21.1-21.1h3.2l-7 7v-3.2L350 48.5l1.6 1.6-1.6 1.6L321.8 80l-14.1 14-7.1 7.1-3.5 3.5-.4.4-.2.2-.1.1-.2.2-.1.1c-.4.3-.5.5-1.2.9-.3.2-.6.4-.9.5l-.9.3c-.6.2-1.2.2-1.8.2-1.2-.1-2.4-.3-3.5-.9-.6-.3-1-.7-1.5-1.1-.3-.2-.3-.3-.5-.5l-.4-.4-3.5-3.5-7.1-7.1-14.1-14.1-28.2-28.3-1.6-1.6 1.6-1.6 13.9-14.1v3.2l-7-7h3.2l-21.1 21.1v-3.2l29 29h-3.1L275 49.8V53l-8.5-8.5h3.1l-14.3 14.3v-3.1l14.5 14.5h-3.1l51-51.2v3l-11.3-11.3-5.6-5.6c-1.1-1.2-3-1.2-4.2 0L274 27.7l-45.2 45.1-1.5 1.5-1.5-1.5-15.5-15.5 1.5.6H103.6l-.6-.6-9.6-9.6h2.9l-9.9 9.9v-2.9l9.6 9.6h-2.9l4.8-4.8v2.9l-4.9-5h2.9L85.3 68l-1.4 1.4-1.5-1.4-16.5-16.6h2.8l-5.9 5.9-.6.6h-.8l-15.1-.1-15.1-.2-15.1-.3C11 57.2 6 57.1 1 56.9c-.6 0-1-.5-1-1s.4-.9 1-1c5-.2 10.1-.3 15.1-.5l15.1-.3 15.1-.1 15.1-.1-1.4.6 5.9-5.9 1.4-1.4 1.4 1.4 16.6 16.6h-2.8L93 54.6l1.4-1.4 1.4 1.4 5 4.9 1.4 1.4-1.4 1.4-4.8 4.9-1.4 1.4-1.4-1.4-9.6-9.6-1.4-1.4 1.4-1.4 9.9-9.9 1.4-1.4 1.4 1.4 9.6 9.6-1.4-.6h108.3l.6.6L228.9 70h-3L271 24.8l22.6-22.6c1.3-1.3 3.2-2.2 5.1-2.2.5 0 .9.1 1.4.1.5.1.9.2 1.4.4s1 .5 1.4.8l.4.3.2.2.1.1.2.2 5.6 5.6L320.8 19l1.5 1.5-1.5 1.5-51.2 51.2-1.5 1.5-1.5-1.5L252 58.8l-1.5-1.5 1.5-1.5 14.3-14.3 1.5-1.6 1.6 1.6 8.5 8.5 1.6 1.6-1.6 1.6-27.6 27.6-1.6 1.6-1.6-1.6-29-29-1.6-1.6 1.6-1.6 21.1-21.1 1.6-1.6 1.6 1.6 7 7 1.6 1.6-1.6 1.6-13.9 14.1v-3.2l28.3 28.2 14.1 14.1L285 98l3.5 3.5.4.4.4.4c.2.1.3.3.6.4.4.3.8.3 1.3.4.2-.1.5 0 .7-.1.1 0 .2-.1.3-.1.1 0 .1-.1.2-.1 0 .1.5-.3.8-.6l.1-.1c.2-.1-.2.2-.1.1l.1-.1.2-.2.4-.4 3.5-3.5 7.1-7.1 14.1-14.1 28.3-28.2v3.2L333 37.7l-1.6-1.6 1.6-1.6 7-7 1.6-1.6 1.6 1.6 21.1 21.1 1.6 1.6-1.6 1.6-29 29-1.6 1.6-1.6-1.6L304.5 53l-1.6-1.6 1.6-1.6 8.5-8.5 1.6-1.6 1.5 1.6 14.3 14.3 1.5 1.5-1.5 1.5-14.5 14.5-1.5 1.5-1.5-1.5-51.2-51.2-1.5-1.5 1.5-1.5L273 7.6l5.6-5.6c1.3-1.3 3.2-2.2 5.1-2.1.5 0 .9.1 1.4.2s.9.2 1.4.4c.2.1.5.3.7.4l.4.2.2.1.1.1.4.3.2.2.1.1.2.2 22.6 22.6 45.1 45.2h-3L369 54.4l.6-.6h108.3l-1.4.6 9.6-9.6 1.4-1.4 1.4 1.4 9.9 9.9 1.4 1.4-1.4 1.4-9.6 9.6-1.4 1.4-1.4-1.4-4.8-4.8-1.4-1.4 1.4-1.4 5-4.9 1.4-1.4 1.4 1.4 10.5 10.5h-2.8l16.6-16.6 1.4-1.4 1.4 1.4 5.9 5.9-1.4-.6 15.1.1 15.1.2 15.1.3c5 .2 10.1.3 15.1.5.6 0 1 .5 1 1-.1.6-.5 1-1 1z" fill="#fff"/></g></svg>