<svg version="1.1" id="Isolation_Mode" xmlns="http://www.w3.org/2000/svg" x="0" y="0" viewBox="0 0 118.5 71.2" xml:space="preserve"><style>.st0{fill:none}.st1{fill:#fff}</style><path class="st0" d="M59.2 0C26.5 0 0 15.9 0 35.6s26.5 35.6 59.2 35.6 59.2-15.9 59.2-35.6S91.9 0 59.2 0m59.3 35.6C118.5 15.9 91.9 0 59.2 0"/><path class="st0" d="M59.2 0C26.5 0 0 15.9 0 35.6s26.5 35.6 59.2 35.6"/><path class="st1" d="M36.3 54.1l-.1.6-.7-.2-.5 5.2 1.8-3.3.3 3.8 1.7-4.8-.8-.2.1-.6 1.7.4-.1.6-.4-.1-2.1 6.2-.6-.1-.3-3.2-1.5 2.8-.5-.2.6-6.5-.4-.1.1-.6 1.7.3zm3.7 4.3c.3-1.8 1.3-3.5 2.8-3.3 1.6.2 2 2.2 1.8 4-.3 1.8-1.3 3.5-2.8 3.3-1.6-.2-2.1-2.2-1.8-4zm4 .6c.2-1.3 0-3-1.2-3.2-1.2-.2-1.9 1.4-2.1 2.7-.2 1.3 0 3 1.2 3.2 1.2.2 1.9-1.3 2.1-2.7zm6.5 4.3l-1.1-.1-1.4-3.4-.9-.1-.2 2.5.9.1-.1.7-2.3-.2.1-.7.8.1.5-5.6-.8-.2.1-.6c.3.1.5.2.9.2h1.5c1 .1 1.8.7 1.7 2-.1 1-.6 1.6-1.4 1.8l1.2 2.8.7.1-.2.6zm-3.4-4.2l.5.1c1.2.1 1.8-.4 1.8-1.1.1-.9-.4-1.3-1.1-1.3h-1l-.2 2.3zm5.4-2l-.8-.2v-.5c.3.1.6.2.9.2.4 0 .8-.1 1.2-.1 1.4.1 2.5 1.2 2.4 3.7-.1 2.6-1.2 3.4-2.5 3.3-.4 0-.9-.1-1.3-.1l-1 .1-.1-.7.8-.1.4-5.6zm.3 5.6h1c1 0 1.8-.6 1.9-2.6.1-2.3-1-3.2-1.9-3.1l-.7.1-.3 5.6zm6.4.2h1.5v.7h-2.9v-.7h.8v-5.7l-.8-.1v-.6c.3 0 .7.1 1 .1.6 0 1.1-.1 1.7-.2.9 0 1.7.5 1.7 1.8s-.7 2.2-2.1 2.2h-.8l-.1 2.5zm0-3h.8c1 0 1.5-.6 1.5-1.5s-.5-1.3-1.2-1.3c-.4 0-.8.1-1.1.1v2.7zm9.5 3.4l-1.1.1-1.9-3.1h-.9l.1 2.5h.9v.7l-2.3.1v-.7h.8l-.3-5.6-.8-.1v-.6c.3.1.6.1.9.1.5 0 1-.2 1.5-.2 1 0 1.9.4 1.9 1.7 0 1-.4 1.6-1.2 1.9l1.6 2.6h.7l.1.6zm-4-3.6h.5c1.2 0 1.7-.6 1.6-1.4 0-.9-.6-1.2-1.3-1.2-.3 0-.6.1-1 .1l.2 2.5zm4.8 3.6l-.1-.7 1-.1-.5-5.7-1 .1-.1-.7 4.6-.4.2 2-.6.1v-.3c-.1-1-.1-1.1-.9-1l-1.6.2.2 2.2 1.3-.1-.1-1 .6-.1.3 2.7-.6.1-.1-1.1-1.3.1.3 2.8 1.8-.2c.7-.1.8-.2.7-1.5v-.2l.6-.1.2 2.3-4.9.6zm8.6-.9c-.5.1-.9 0-1.4-.2v.4h-.6l-.1-1.2c0-.4-.1-.7-.3-1l.6-.2.1.5c.2.8.7 1.2 1.5 1 .6-.1 1.2-.5 1.1-1.4-.3-2.1-3.2-.5-3.6-3-.2-1.2.7-2 1.6-2.2.3-.1.8 0 1.1.1v-.5h.6l.1 1.2c0 .4.1.7.2 1l-.6.2c-.1-.3-.1-.8-.3-1.1-.2-.4-.7-.4-1.1-.4-.5.1-1.2.5-1.1 1.4.3 1.9 3.2.4 3.6 3 .4 1.3-.3 2.2-1.4 2.4zm6.1-1.1c-.5.1-.9.1-1.4-.1l.1.4h-.6l-.3-1.2c0-.3-.2-.7-.3-1l.5-.2.2.5c.3.8.7 1.1 1.6.9.6-.1 1.2-.6 1-1.5-.4-2-3.3-.3-3.8-2.8-.3-1.2.6-2.1 1.5-2.3.3-.1.8-.1 1.1.1v-.5h.6l.2 1.2c0 .3.2.7.3 1l-.6.2c-.1-.3-.2-.8-.4-1-.3-.4-.7-.4-1.1-.3-.5.1-1.2.6-1 1.4.4 1.8 3.2.2 3.8 2.7.3 1.3-.4 2.3-1.4 2.5z"/><path d="M88.2 57c2.7-.7 5.2-1.6 7.5-2.5 2.3-.9 4.4-1.9 6.2-3M18 51c1.8 1.1 3.9 2.1 6.2 3.1 2.3.9 4.8 1.8 7.5 2.6" stroke-linecap="round" stroke-linejoin="round" fill="none" stroke-width=".636" stroke="#fff" stroke-miterlimit="10"/><path d="M40.9 17.1l1.3 9.3-.4.1-.6-4.4c-.1-.4-.1-.8-.1-1.1-.3 1.3-1.2 2-2.4 2.1-1.5.2-2.9-.7-3.1-2.4-.3-1.9.9-3.2 2.5-3.4 1.2-.2 2.2.4 2.7 1.4-.1-.2-.2-.6-.2-1l-.1-.5.4-.1zm0 2.6c-.2-1.3-1.4-2.2-2.7-2-1.4.2-2.3 1.4-2.1 2.9.2 1.5 1.4 2.4 2.8 2.2 1.3-.2 2.2-1.4 2.1-2.7l-.1-.4zm7.6 1.3c-.5.8-1 1.2-1.7 1.2-1 .1-1.7-.7-1.7-1.6l-.3-3.8h.4l.3 3.7c.1.9.6 1.5 1.5 1.4 1.2-.1 2.1-1.9 2.9-5.7l.4.1c-.1.5-.1 1.3 0 2.2l.3 3.4h-.4l-.2-2.7c-.1-.8-.1-1.3 0-1.8-.5 1.6-1.1 2.9-1.5 3.6zM59 16l.1 5.5h-.4v-1.6c-.5 1.3-1.5 1.8-2.6 1.8-1.5 0-2.8-1-2.8-2.8 0-2 1.3-3 2.9-3.1 1.2 0 2.1.7 2.5 1.7-.1-.2-.1-.6-.1-1.1v-.5l.4.1zm-.3 2.5c0-1.3-1.1-2.3-2.5-2.3s-2.5 1.1-2.4 2.7c0 1.5 1.1 2.6 2.5 2.5 1.3 0 2.4-1.2 2.4-2.4v-.5zm4.2 3.1l.4-18.2h.4l-.4 18.2h-.4zm4.1.1l.3-5.5h.4l-.3 5.5H67zm.6-7c-.2 0-.3-.2-.3-.3s.2-.3.3-.3c.2 0 .3.2.3.3 0 .2-.2.3-.3.3zm4.5 7.3l.4-5.1-1.8-.2v-.3l1.8.2.2-2.9h.4l-.2 2.9 1.8.2v.3l-1.8-.1-.4 5.1-.4-.1zm4.8-5.1l.4.1 1.5 5.3 2.7-4.7.4.1-3.1 5.1c-.7 1.1-1.8 2.6-2.8 3.7l-.3-.3c1-1.1 2.3-2.7 2.8-3.6l-1.6-5.7zM47.8 6.7c.3 0 .6 0 .7.1v.1c-.2-.1-.5-.1-.7-.1-.9.1-1.6.8-1.5 2.4l.2 2.8.7-.1v.1l-.7.1.1 1.6c.1 1.2-.2 1.8-.7 2.2l-.1-.1c.6-.5.8-1 .7-2l-.1-1.7-.8.1v-.1l.8-.1-.2-2.8c-.2-1.5.5-2.5 1.6-2.5zm.7 4.5c-.1 0-.1 0-.1-.1s0-.1.1-.1.1 0 .1.1 0 .1-.1.1zm.1 2.9l-.1-2.2h.2l.1 2.2h-.2zm2.4-2c.2-.3.4-.5.7-.5.4 0 .7.3.7.7l.1 1.6h-.2l-.1-1.5c0-.4-.2-.6-.6-.6-.5 0-.9.7-1.3 2.3h-.1c0-.2.1-.5 0-.9l-.1-1.4h.2l.1 1.1v.7c.1-.7.4-1.2.6-1.5zm2.6.7c0-.8.5-1.2 1.1-1.2.7 0 1 .5 1 1v.1h-2c0 .7.5 1.1 1 1.1.3 0 .6-.2.8-.4l.1.1c-.2.3-.5.5-.9.5-.5-.1-1-.5-1.1-1.2zm.2-.2h1.8c0-.5-.3-.9-.9-.9-.5 0-.8.3-.9.9zm3.8.2c-.4-.1-.6-.3-.6-.7 0-.4.3-.7.7-.7.2 0 .4.1.6.3l-.1.1c-.1-.2-.3-.2-.5-.2-.3 0-.6.2-.6.5s.2.5.6.6c.4.1.6.3.6.6s-.3.6-.7.6c-.2 0-.4-.1-.7-.2l.1-.1c.2.2.4.2.6.2.3 0 .6-.2.6-.4-.1-.3-.3-.5-.6-.6zm2.4 1v-2.1h-.8v-.1h.8v-1.2h.2v1.2h.8v.1h-.8v2.1H60z" stroke="#fff" stroke-miterlimit="10" stroke-width=".214" fill="#fff"/><path class="st1" d="M9.9 29.4h5.6l-3 14.1h5.2l-.4 2.2H6.4l3.5-16.3zM34 45.6h-6l-.4-4.1h-4.7l-1.8 4.1h-2.5l7.6-16.3h6.1L34 45.6zm-10.2-5.9h3.7l-.6-7-3.1 7zm31.3 5.9h-5.7l2.4-11.1-6.1 11.1h-3.5L41 34.2l-2.5 11.5h-2.3l3.5-16.3h6.5l.8 9.2 4.9-9.2h6.6l-3.4 16.2zm19.5-12.5c0 .5-.1.9-.2 1.3s-.3.7-.6 1c-.3.3-.6.6-.9.8-.3.2-.7.5-1.1.7.2.1.4.2.7.3.3.1.5.3.7.6.2.3.4.6.6 1s.2.9.2 1.5c0 .8-.2 1.5-.5 2.1-.3.6-.8 1.2-1.4 1.7-.6.5-1.4.8-2.4 1.1-.9.3-2 .4-3.2.4h-7.6l3.5-16.3h6.7c.7 0 1.3 0 2 .1s1.2.3 1.8.6c.5.3.9.7 1.3 1.1.3.6.4 1.2.4 2zM65.8 44c.5 0 .9-.1 1.3-.4.3-.3.6-.6.8-1.1.2-.4.4-.9.5-1.3.1-.5.1-.9.1-1.2 0-.6-.1-1.1-.4-1.4-.1-.5-.5-.6-1.1-.6h-.9l-1.3 6h1zm1.9-7.8c.4 0 .7-.1 1-.3.3-.2.5-.5.7-.8.2-.3.3-.7.4-1.1.1-.4.1-.7.1-1 0-.5-.1-.9-.3-1.3-.2-.3-.6-.5-1.1-.5h-.8l-1.1 5.1h1.1zm8.2 9.4l3.5-16.3h6.9c1.1 0 2 .1 2.8.3.8.2 1.5.6 2 1.1.5.5.9 1.1 1.2 1.9.3.8.4 1.8.4 2.9 0 1.2-.2 2.5-.5 3.7-.3 1.2-.8 2.3-1.6 3.2-.7.9-1.7 1.7-2.9 2.3-1.2.6-2.7.9-4.4.9h-7.4zm7-1.8c.6 0 1.1-.2 1.5-.7.4-.5.8-1.1 1.1-1.8.3-.7.6-1.5.8-2.4.2-.9.4-1.7.5-2.6.1-.8.2-1.6.3-2.2.1-.6.1-1.1.1-1.4 0-.5-.1-.9-.3-1.2-.2-.3-.6-.4-1.1-.4h-1.2l-2.7 12.7h1zm25 1.8h-6l-.4-4.1h-4.7L95 45.6h-2.5l7.6-16.3h6.1l1.7 16.3zm-10.3-5.9h3.7l-.6-7-3.1 7z"/></svg>